<svg width="116" height="116" viewBox="0 0 116 116" fill="none" xmlns="http://www.w3.org/2000/svg">
<g clip-path="url(#clip0)">
<path d="M50.6164 71.358L24.2527 90.6903C21.0909 92.7982 18.6277 94.2045 15.4659 94.2045C9.13919 94.2045 3.86646 88.5794 3.86646 82.2617C3.86646 76.98 8.08524 73.1136 11.9517 71.358L42.8834 58L11.9517 44.2897C7.74786 42.5341 3.86646 38.6677 3.86646 33.3949C3.86646 27.0683 9.4915 21.7955 15.8092 21.7955C18.974 21.7955 21.0819 22.8495 24.2438 25.3097L50.6074 44.642L47.1022 13.358C46.0483 5.97138 50.9687 0 58 0C65.0313 0 69.9427 5.62504 68.8978 13.0057L65.3717 44.642L91.7353 25.3097C94.9091 22.8495 97.3693 21.7955 100.534 21.7955C103.602 21.8228 106.537 23.0536 108.706 25.2231C110.875 27.3925 112.106 30.327 112.134 33.3949C112.134 39.02 108.267 42.5341 104.048 44.2927L73.1135 58L104.048 71.358C108.267 73.1136 112.134 76.98 112.134 82.6051C112.134 88.9317 106.508 94.2045 100.191 94.2045C97.3782 94.2045 94.918 92.7982 91.7532 90.6903L65.3717 71.358L68.8858 102.642C69.9398 110.023 65.0193 116 57.988 116C50.9568 116 46.0453 110.375 47.0903 102.994L50.6164 71.358Z" fill="#FF2E00"/>
<path d="M50.6164 71.358L24.2527 90.6903C21.0909 92.7982 18.6277 94.2045 15.4659 94.2045C9.13919 94.2045 3.86646 88.5794 3.86646 82.2617C3.86646 76.98 8.08524 73.1136 11.9517 71.358L42.8834 58L11.9517 44.2897C7.74786 42.5341 3.86646 38.6677 3.86646 33.3949C3.86646 27.0683 9.4915 21.7955 15.8092 21.7955C18.974 21.7955 21.0819 22.8495 24.2438 25.3097L50.6074 44.642L47.1022 13.358C46.0483 5.97138 50.9687 0 58 0C65.0313 0 69.9427 5.62504 68.8978 13.0057L65.3717 44.642L91.7353 25.3097C94.9091 22.8495 97.3693 21.7955 100.534 21.7955C103.602 21.8228 106.537 23.0536 108.706 25.2231C110.875 27.3925 112.106 30.327 112.134 33.3949C112.134 39.02 108.267 42.5341 104.048 44.2927L73.1135 58L104.048 71.358C108.267 73.1136 112.134 76.98 112.134 82.6051C112.134 88.9317 106.508 94.2045 100.191 94.2045C97.3782 94.2045 94.918 92.7982 91.7532 90.6903L65.3717 71.358L68.8858 102.642C69.9398 110.023 65.0193 116 57.988 116C50.9568 116 46.0453 110.375 47.0903 102.994L50.6164 71.358Z" fill="url(#paint0_linear)"/>
<path d="M50.6164 71.358L24.2527 90.6903C21.0909 92.7982 18.6277 94.2045 15.4659 94.2045C9.13919 94.2045 3.86646 88.5794 3.86646 82.2617C3.86646 76.98 8.08524 73.1136 11.9517 71.358L42.8834 58L11.9517 44.2897C7.74786 42.5341 3.86646 38.6677 3.86646 33.3949C3.86646 27.0683 9.4915 21.7955 15.8092 21.7955C18.974 21.7955 21.0819 22.8495 24.2438 25.3097L50.6074 44.642L47.1022 13.358C46.0483 5.97138 50.9687 0 58 0C65.0313 0 69.9427 5.62504 68.8978 13.0057L65.3717 44.642L91.7353 25.3097C94.9091 22.8495 97.3693 21.7955 100.534 21.7955C103.602 21.8228 106.537 23.0536 108.706 25.2231C110.875 27.3925 112.106 30.327 112.134 33.3949C112.134 39.02 108.267 42.5341 104.048 44.2927L73.1135 58L104.048 71.358C108.267 73.1136 112.134 76.98 112.134 82.6051C112.134 88.9317 106.508 94.2045 100.191 94.2045C97.3782 94.2045 94.918 92.7982 91.7532 90.6903L65.3717 71.358L68.8858 102.642C69.9398 110.023 65.0193 116 57.988 116C50.9568 116 46.0453 110.375 47.0903 102.994L50.6164 71.358Z" fill="url(#paint1_linear)"/>
</g>
<defs>
<linearGradient id="paint0_linear" x1="112" y1="106.5" x2="-1.09478e-05" y2="11.5" gradientUnits="userSpaceOnUse">
<stop stop-color="#8F00FF"/>
<stop offset="1" stop-color="white" stop-opacity="0"/>
</linearGradient>
<linearGradient id="paint1_linear" x1="94" y1="97.5" x2="58" y2="58" gradientUnits="userSpaceOnUse">
<stop stop-color="#489CFF"/>
<stop offset="1" stop-color="white" stop-opacity="0"/>
</linearGradient>
<clipPath id="clip0">
<rect width="116" height="116" fill="white"/>
</clipPath>
</defs>
</svg>
